<?xml version="1.0" encoding="utf-8"?>
<!-- Generator: Adobe Illustrator 16.0.0, SVG Export Plug-In . SVG Version: 6.00 Build 0)  -->
<!DOCTYPE svg PUBLIC "-//W3C//DTD SVG 1.1//EN" "http://www.w3.org/Graphics/SVG/1.1/DTD/svg11.dtd">
<svg version="1.1" id="Layer_1" xmlns="http://www.w3.org/2000/svg" xmlns:xlink="http://www.w3.org/1999/xlink" x="0px" y="0px"
	 width="400px" height="200px" viewBox="0 0 400 200" enable-background="new 0 0 400 200" xml:space="preserve">
<g>
	<path fill="#FFFFFF" d="M239.978,142.864c-13.8,0-24.973-11.184-24.973-24.971c0-6.705,2.656-12.78,6.976-17.28L201.26,79.91
		c-9.582,9.801-15.523,23.192-15.523,37.984c0,29.939,24.26,54.22,54.227,54.22c14.767,0,28.184-5.899,37.981-15.502l-20.701-20.713
		C252.771,140.196,246.696,142.864,239.978,142.864z"/>
	<polygon fill="#FFFFFF" points="0,170 108,170 108,141.604 62.602,142 29,142 29,96 79,96 79,68 29,68 29,34 108,34 108,6 0,6 	"/>
	<polygon fill="#FFFFFF" points="157,69 190.078,69 126,5.54 126,5.657 126,75.035 126,103.785 126,170 172,170 172,142 157,142 	
		"/>
	<path fill="#FFFFFF" d="M400.005,119.302c-0.088-17.087-5.063-26.993-10.642-33.397c-9.87-13.467-25.622-22.201-43.593-22.201
		c-8.985,0-17.771,2.173-24.771,6.052V6h-29.692l0.007,164h-0.014l23.836,23.614l5.863,5.604v-11.373v-5.189v-62.094v-2.683
		c0-0.851-0.137-1.662-0.057-2.493c1.281-12.605,11.805-22.385,24.738-22.385c13.801,0,24.871,10.999,24.871,24.999h0.202l0.128,52
		h29.195L400.005,119.302z"/>
</g>
</svg>
