<?xml version="1.0" encoding="utf-8"?>
<!-- Generator: Adobe Illustrator 16.0.0, SVG Export Plug-In . SVG Version: 6.00 Build 0)  -->
<!DOCTYPE svg PUBLIC "-//W3C//DTD SVG 1.1//EN" "http://www.w3.org/Graphics/SVG/1.1/DTD/svg11.dtd">
<svg version="1.1" id="Layer_1" xmlns="http://www.w3.org/2000/svg" xmlns:xlink="http://www.w3.org/1999/xlink" x="0px" y="0px"
	 width="100px" height="60px" viewBox="0 0 100 60" enable-background="new 0 0 100 60" xml:space="preserve">
<rect fill="#FF6666" width="100" height="60"/>
<g>
	<path fill="#FFFFFF" d="M56.449,37.396c-2.009,0-3.637-1.629-3.637-3.636c0-0.977,0.387-1.862,1.016-2.517l-3.017-3.015
		c-1.396,1.427-2.261,3.377-2.261,5.532c0,4.36,3.533,7.896,7.898,7.896c2.15,0,4.104-0.859,5.531-2.257l-3.015-3.017
		C58.312,37.008,57.428,37.396,56.449,37.396z"/>
	<polygon fill="#FFFFFF" points="21.5,41.33 37.352,41.33 37.352,37.213 30.617,37.217 25.782,37.217 25.782,30.636 33.068,30.636 
		33.068,26.52 25.782,26.52 25.782,21.527 37.352,21.527 37.352,17.414 21.5,17.414 	"/>
	<polygon fill="#FFFFFF" points="39.981,17.397 39.981,17.414 39.981,27.518 39.981,31.705 39.981,41.33 46.473,41.33 
		46.473,37.217 44.24,37.217 44.24,26.597 49.182,26.597 	"/>
	<path fill="#FFFFFF" d="M79.755,33.955c-0.013-2.488-0.737-3.926-1.55-4.859c-1.438-1.961-3.756-3.231-6.373-3.231
		c-1.309,0-2.548,0.319-3.632,0.884v-9.335h-4.261l-0.014,11.694l-0.006,9.315v0.493l-0.002,2.416l3.453,3.447l0.829,0.824v-1.656
		v-0.756v-9.043v-0.39c0-0.124,0.005-0.243,0.017-0.363c0.186-1.836,1.732-3.268,3.615-3.268c2.01,0,3.635,1.629,3.635,3.633l0,0
		h0.029l-0.01,7.569h4.281v-5.852L79.755,33.955z"/>
</g>
</svg>
